<?xml version="1.0" encoding="UTF-8"?>
<svg id="Layer_2" data-name="Layer 2" xmlns="http://www.w3.org/2000/svg" viewBox="0 0 145.05 373.59">
  <defs>
    <style>
      .cls-1 {
        fill: #fff;
        stroke: #000;
        stroke-miterlimit: 10;
        stroke-width: 4px;
      }
    </style>
  </defs>
  <g id="Layer_1-2" data-name="Layer 1">
    <g>
      <polygon class="cls-1" points="67.08 13.06 64.39 14.41 59.27 40.51 62.91 30.06 67.08 13.06"/>
      <path class="cls-1" d="M114.77,254.19c0-23.61,29.45-39.41,2.78-66.08,0,0-6.33,9.5-16.75,13.28l-4.98,46.37-12.97-.38-2.46-173.9,6.35-8.62V3.24l-17.53,8.76-6.29,18.05-7.95,32.41,4.3-21.95-7.3,20.95,12.21-46.94-8.25,4.12-19.26,42.37,15.96,15.9-1.55,110.37s-3.1,10.16-10.73,10.16c-20.96,0-22.94-40.15-22.94-40.15,0,0-5.12,5.47-9.46,14.32l6.01,25.84-6.46-24.92c-.25.53-.49,1.06-.73,1.61l9.19,30.62-9.87-29c-.22.54-.43,1.09-.64,1.65l10.51,28.03s-8.24-16.48-11.28-25.82c-1.59,4.86-2.68,10.32-2.68,16.18,0,19.77,11.55,31.21,11.55,50.07,0,1.67-.11,3.28-.29,4.86,5.27-1.88,10.67-3.31,16.24-4.18.95-.15,2.03-.05,3.03.28.83-.59,1.83-.94,2.89-.97,12.65-.38,17.96,11.11,19.77,22.47.75.7,1.28,1.67,1.48,2.9,1.19.36,2.26,1.14,2.98,2.3,1.78-.3,3.59.32,4.6,2.39,0,.02.02.04.02.05.71-.87,1.68-1.33,2.72-1.42,1.25-4.34,8.55-3.94,9.51.52.3,1.4,2.83,4.22,2.83,4.22l-2.14,92.08c17.78-1.62,35.42-8.88,49.98-23.44,40.77-40.77-12.41-77.69-12.41-93.76ZM118.93,344.47c.6,0,1.03,0,1.03,0l-.43,1s-1.21-.99-.6-1ZM115.02,326.59l.61.99-5.67,12.88-4.74,7.66,9.8-21.53ZM113.96,352.17c-1-.3,0-3.7,0-3.7,0,0,1,4,0,3.7ZM90.22,348.12l17.67-38.82c.26-.57,1.05-.62,1.38-.09l.13.22c.14.23.15.52.03.76l-19.21,37.93ZM95.88,296.25c-1.09-1.22,12.22-29.67,12.22-29.67.37-.9,1.6-1.02,2.14-.21l.35.53c.23.35.27.8.09,1.18l-29.71,64.38s16-35,14.91-36.22ZM87.98,367.86c-3.32.97-5.02,1.05-5.02,1.05,1.72-.3,3.39-.66,5.02-1.05,7.28-2.12,22.35-8.5,44.19-27.6,0,0-15.42,20.67-44.19,27.6Z"/>
    </g>
  </g>
</svg>